<mxfile host="app.diagrams.net" modified="2023-04-23T12:09:06.778Z" agent="Mozilla/5.0 (Macintosh; Intel Mac OS X 10_15_7) AppleWebKit/605.1.15 (KHTML, like Gecko) Version/16.4.1 Safari/605.1.15" etag="oBiZqLPQRdHnOcYXJSHm" version="21.1.2" type="device">
  <diagram id="bSV-duCxRNtaex6j3KHZ" name="Page-1">
    <mxGraphModel dx="988" dy="565" grid="1" gridSize="10" guides="1" tooltips="1" connect="1" arrows="1" fold="1" page="1" pageScale="1" pageWidth="827" pageHeight="1169" math="0" shadow="0">
      <root>
        <mxCell id="0" />
        <mxCell id="1" parent="0" />
        <mxCell id="GLP-U17caBRApezwp0rv-6" value="" style="endArrow=none;dashed=1;html=1;dashPattern=1 3;strokeWidth=2;rounded=0;exitX=1;exitY=1;exitDx=0;exitDy=0;entryX=0.5;entryY=0;entryDx=0;entryDy=0;fillColor=#f5f5f5;strokeColor=#666666;targetPerimeterSpacing=10;" parent="1" edge="1">
          <mxGeometry width="50" height="50" relative="1" as="geometry">
            <mxPoint x="361.4000000000001" y="280" as="sourcePoint" />
            <mxPoint x="413.71000000000004" y="302" as="targetPoint" />
          </mxGeometry>
        </mxCell>
        <mxCell id="GLP-U17caBRApezwp0rv-7" value="" style="endArrow=none;dashed=1;html=1;dashPattern=1 3;strokeWidth=2;rounded=0;entryX=0;entryY=1;entryDx=0;entryDy=0;fillColor=#f5f5f5;strokeColor=#666666;exitX=0.5;exitY=0;exitDx=0;exitDy=0;" parent="1" edge="1">
          <mxGeometry width="50" height="50" relative="1" as="geometry">
            <mxPoint x="413.71000000000004" y="302" as="sourcePoint" />
            <mxPoint x="480" y="280" as="targetPoint" />
          </mxGeometry>
        </mxCell>
        <mxCell id="GLP-U17caBRApezwp0rv-8" value="" style="endArrow=none;dashed=1;html=1;dashPattern=1 3;strokeWidth=2;rounded=0;endSize=16;fillColor=#f5f5f5;strokeColor=#666666;exitX=0.5;exitY=0;exitDx=0;exitDy=0;" parent="1" edge="1">
          <mxGeometry width="50" height="50" relative="1" as="geometry">
            <mxPoint x="414.71000000000004" y="302" as="sourcePoint" />
            <mxPoint x="415" y="240" as="targetPoint" />
          </mxGeometry>
        </mxCell>
        <mxCell id="mKVw2mbd61XuYdz1YmHa-11" value="" style="shape=image;imageAspect=0;aspect=fixed;verticalLabelPosition=bottom;verticalAlign=top;image=https://avatars.githubusercontent.com/u/11860887?s=280&amp;v=4;" parent="1" vertex="1">
          <mxGeometry x="300" y="400" width="60" height="60" as="geometry" />
        </mxCell>
        <mxCell id="mKVw2mbd61XuYdz1YmHa-16" value="" style="endArrow=none;dashed=1;html=1;dashPattern=1 3;strokeWidth=2;rounded=0;entryX=0.5;entryY=1;entryDx=0;entryDy=0;fillColor=#f5f5f5;strokeColor=#666666;targetPerimeterSpacing=10;" parent="1" edge="1">
          <mxGeometry width="50" height="50" relative="1" as="geometry">
            <mxPoint x="360" y="400" as="sourcePoint" />
            <mxPoint x="413.7149999999999" y="380" as="targetPoint" />
          </mxGeometry>
        </mxCell>
        <mxCell id="mKVw2mbd61XuYdz1YmHa-19" value="" style="shape=image;imageAspect=0;aspect=fixed;verticalLabelPosition=bottom;verticalAlign=top;image=https://upload.wikimedia.org/wikipedia/commons/thumb/3/38/Prometheus_software_logo.svg/2066px-Prometheus_software_logo.svg.png;" parent="1" vertex="1">
          <mxGeometry x="490" y="400" width="60.58" height="60" as="geometry" />
        </mxCell>
        <mxCell id="mKVw2mbd61XuYdz1YmHa-20" value="" style="endArrow=none;dashed=1;html=1;dashPattern=1 3;strokeWidth=2;rounded=0;entryX=0.5;entryY=1;entryDx=0;entryDy=0;fillColor=#f5f5f5;strokeColor=#666666;targetPerimeterSpacing=10;" parent="1" edge="1">
          <mxGeometry width="50" height="50" relative="1" as="geometry">
            <mxPoint x="480" y="400" as="sourcePoint" />
            <mxPoint x="413.7149999999999" y="380" as="targetPoint" />
          </mxGeometry>
        </mxCell>
        <mxCell id="En1KIVsCp9-wME2r348S-4" value="" style="shape=image;imageAspect=0;aspect=fixed;verticalLabelPosition=bottom;verticalAlign=top;image=data:image/svg+xml,PHN2ZyB4bWxucz0iaHR0cDovL3d3dy53My5vcmcvMjAwMC9zdmciIHhtbG5zOnhsaW5rPSJodHRwOi8vd3d3LnczLm9yZy8xOTk5L3hsaW5rIiB2ZXJzaW9uPSIxLjEiIGlkPSJMYXllcl8xIiB4PSIwcHgiIHk9IjBweCIgdmlld0JveD0iMCAwIDgwMC41NSA4NTYuODUiIHN0eWxlPSJlbmFibGUtYmFja2dyb3VuZDpuZXcgMCAwIDgwMC41NSA4NTYuODU7IiB4bWw6c3BhY2U9InByZXNlcnZlIj4mI3hhOzxzdHlsZSB0eXBlPSJ0ZXh0L2NzcyI+JiN4YTsJLnN0MHtmaWxsLXJ1bGU6ZXZlbm9kZDtjbGlwLXJ1bGU6ZXZlbm9kZDtmaWxsOiM2MzJDQTY7fSYjeGE7PC9zdHlsZT4mI3hhOzxwYXRoIGNsYXNzPSJzdDAiIGQ9Ik02NzAuMzgsNjA4LjI3bC03MS4yNC00Ni45OWwtNTkuNDMsOTkuMjdsLTY5LjEyLTIwLjIxbC02MC44Niw5Mi44OWwzLjEyLDI5LjI0bDMzMC45LTYwLjk3bC0xOS4yMi0yMDYuNzUmI3hhOyBMNjcwLjM4LDYwOC4yN3ogTTM2MS43OSw1MTkuMTNsNTMuMDktNy4zYzguNTksMy44NiwxNC41Nyw1LjMzLDI0Ljg3LDcuOTVjMTYuMDQsNC4xOCwzNC42MSw4LjE5LDYyLjExLTUuNjcmI3hhOyBjNi40LTMuMTcsMTkuNzMtMTUuMzYsMjUuMTItMjIuMzFsMjE3LjUyLTM5LjQ2bDIyLjE5LDI2OC41NmwtMzcyLjY1LDY3LjE2TDM2MS43OSw1MTkuMTN6IE03NjUuODUsNDIyLjM2bC0yMS40Nyw0LjA5TDcwMy4xMywwLjI3JiN4YTsgTDAuMjcsODEuNzdsODYuNTksNzAyLjY4bDgyLjI3LTExLjk0Yy02LjU3LTkuMzgtMTYuOC0yMC43My0zNC4yNy0zNS4yNmMtMjQuMjMtMjAuMTMtMTUuNjYtNTQuMzItMS4zNy03NS45MSYjeGE7IGMxOC45MS0zNi40OCwxMTYuMzQtODIuODQsMTEwLjgyLTE0MS4xNWMtMS45OC0yMS4yLTUuMzUtNDguOC0yNS4wMy02Ny43MWMtMC43NCw3Ljg1LDAuNTksMTUuNDEsMC41OSwxNS40MSYjeGE7IHMtOC4wOC0xMC4zMS0xMi4xMS0yNC4zN2MtNC01LjM5LTcuMTQtNy4xMS0xMS4zOS0xNC4zMWMtMy4wMyw4LjMzLTIuNjMsMTcuOTktMi42MywxNy45OXMtNi42MS0xNS42Mi03LjY4LTI4LjgmI3hhOyBjLTMuOTIsNS45LTQuOTEsMTcuMTEtNC45MSwxNy4xMXMtOC41OS0yNC42Mi02LjYzLTM3Ljg4Yy0zLjkyLTExLjU0LTE1LjU0LTM0LjQ0LTEyLjI1LTg2LjQ5YzIxLjQ1LDE1LjAzLDY4LjY3LDExLjQ2LDg3LjA3LTE1LjY2JiN4YTsgYzYuMTEtOC45OCwxMC4yOS0zMy41LTMuMDUtODEuODFjLTguNTctMzAuOTgtMjkuNzktNzcuMTEtMzguMDYtOTQuNjFsLTAuOTksMC43MWM0LjM2LDE0LjEsMTMuMzUsNDMuNjYsMTYuOCw1Ny45OSYjeGE7IGMxMC40NCw0My40NywxMy4yNCw1OC42LDguMzQsNzguNjRjLTQuMTcsMTcuNDItMTQuMTcsMjguODItMzkuNTIsNDEuNTZjLTI1LjM1LDEyLjc4LTU4Ljk5LTE4LjMyLTYxLjEyLTIwLjA0JiN4YTsgYy0yNC42My0xOS42Mi00My42OC01MS42My00NS44MS02Ny4xOGMtMi4yMS0xNy4wMiw5LjgxLTI3LjI0LDE1Ljg3LTQxLjE2Yy04LjY3LDIuNDgtMTguMzQsNi44OC0xOC4zNCw2Ljg4JiN4YTsgczExLjU0LTExLjk0LDI1Ljc3LTIyLjI3YzUuODktMy45LDkuMzUtNi4zOCwxNS41Ni0xMS41NGMtOC45OS0wLjE1LTE2LjI5LDAuMTEtMTYuMjksMC4xMXMxNC45OS04LjEsMzAuNTMtMTQmI3hhOyBjLTExLjM3LTAuNS0yMi4yNS0wLjA4LTIyLjI1LTAuMDhzMzMuNDUtMTQuOTYsNTkuODctMjUuOTRjMTguMTctNy40NSwzNS45Mi01LjI1LDQ1Ljg5LDkuMTdjMTMuMDksMTguODksMjYuODQsMjkuMTUsNTUuOTgsMzUuNTEmI3hhOyBjMTcuODktNy45MywyMy4zMy0xMi4wMSw0NS44MS0xOC4xM2MxOS43OS0yMS43NiwzNS4zMy0yNC41OCwzNS4zMy0yNC41OHMtNy43MSw3LjA3LTkuNzcsMTguMTgmI3hhOyBjMTEuMjItOC44NCwyMy41Mi0xNi4yMiwyMy41Mi0xNi4yMnMtNC43Niw1Ljg4LTkuMiwxNS4yMmwxLjAzLDEuNTNjMTMuMDktNy44NSwyOC40OC0xNC4wNCwyOC40OC0xNC4wNHMtNC40LDUuNTYtOS41NiwxMi43NiYjeGE7IGM5Ljg3LTAuMDgsMjkuODksMC40MiwzNy42NiwxLjNjNDUuODcsMS4wMSw1NS4zOS00OC45OSw3Mi45OS01NS4yNmMyMi4wNC03Ljg3LDMxLjg5LTEyLjYzLDY5LjQ1LDI0LjI2JiN4YTsgYzMyLjIzLDMxLjY3LDU3LjQxLDg4LjM2LDQ0LjkxLDEwMS4wNmMtMTAuNDgsMTAuNTQtMzEuMTYtNC4xMS01NC4wOC0zMi42OGMtMTIuMTEtMTUuMTMtMjEuMjctMzMuMDEtMjUuNTYtNTUuNzQmI3hhOyBjLTMuNjItMTkuMTgtMTcuNzEtMzAuMzEtMTcuNzEtMzAuMzFTNTIwLDkyLjk1LDUyMCwxMDkuMDFjMCw4Ljc3LDEuMSw0MS41NiwxNS4xNiw1OS45NmMtMS4zOSwyLjY5LTIuMDQsMTMuMzEtMy41OCwxNS4zNCYjeGE7IGMtMTYuMzYtMTkuNzctNTEuNDktMzMuOTItNTcuMjItMzguMDljMTkuMzksMTUuODksNjMuOTYsNTIuMzksODEuMDgsODcuMzdjMTYuMTksMzMuMDgsNi42NSw2My40LDE0Ljg0LDcxLjI1JiN4YTsgYzIuMzMsMi4yNSwzNC44Miw0Mi43Myw0MS4wNyw2My4wN2MxMC45LDM1LjQ1LDAuNjUsNzIuNy0xMy42Miw5NS44MWwtMzkuODUsNi4yMWMtNS44My0xLjYyLTkuNzYtMi40My0xNC45OS01LjQ2JiN4YTsgYzIuODgtNS4xLDguNjEtMTcuODIsOC42Ny0yMC40NGwtMi4yNS0zLjk1Yy0xMi40LDE3LjU3LTMzLjE4LDM0LjYzLTUwLjQ0LDQ0LjQzYy0yMi41OSwxMi44LTQ4LjYzLDEwLjgzLTY1LjU4LDUuNTgmI3hhOyBjLTQ4LjExLTE0Ljg0LTkzLjYtNDcuMzUtMTA0LjU3LTU1Ljg5YzAsMC0wLjM0LDYuODIsMS43Myw4LjM1YzEyLjEzLDEzLjY4LDM5LjkyLDM4LjQzLDY2Ljc4LDU1LjY4bC01Ny4yNiw2LjNsMjcuMDcsMjEwLjc4JiN4YTsgYy0xMiwxLjcyLTEzLjg3LDIuNTYtMjcuMDEsNC40M2MtMTEuNTgtNDAuOTEtMzMuNzMtNjcuNjItNTcuOTQtODMuMThjLTIxLjM1LTEzLjcyLTUwLjgtMTYuODEtNzguOTktMTEuMjNsLTEuODEsMi4xJiN4YTsgYzE5LjYtMi4wNCw0Mi43NCwwLjgsNjYuNTEsMTUuODVjMjMuMzMsMTQuNzUsNDIuMTMsNTIuODUsNDkuMDUsNzUuNzljOC44NiwyOS4zMiwxNC45OSw2MC42OC04Ljg2LDkzLjkyJiN4YTsgYy0xNi45NywyMy42My02Ni41MSwzNi42OS0xMDYuNTMsOC40NGMxMC42OSwxNy4xOSwyNS4xNCwzMS4yNSw0NC41OSwzMy45YzI4Ljg4LDMuOTIsNTYuMjktMS4wOSw3NS4xNi0yMC40NiYjeGE7IGMxNi4xMS0xNi41NiwyNC42NS01MS4xOSwyMi40LTg3LjY2bDI1LjQ5LTMuN2w5LjIsNjUuNDZsNDIxLjk4LTUwLjgxTDc2NS44NSw0MjIuMzZ6IE01MDkuMTIsMjQ0LjU5JiN4YTsgYy0xLjE4LDIuNjktMy4wMyw0LjQ1LTAuMjUsMTMuMmwwLjE3LDAuNWwwLjQ0LDEuMTNsMS4xNiwyLjYyYzUuMDEsMTAuMjQsMTAuNTEsMTkuOSwxOS43LDI0LjgzYzIuMzgtMC40LDQuODQtMC42Nyw3LjM5LTAuOCYjeGE7IGM4LjYzLTAuMzgsMTQuMDgsMC45OSwxNy41NCwyLjg1YzAuMzEtMS43MiwwLjM4LTQuMjQsMC4xOS03Ljk1Yy0wLjY3LTEyLjk3LDIuNTctMzUuMDMtMjIuMzYtNDYuNjQmI3hhOyBjLTkuNDEtNC4zNy0yMi42MS0zLjAyLTI3LjAxLDIuNDNjMC44LDAuMSwxLjUyLDAuMjcsMi4wOCwwLjQ2QzUxNC44MiwyMzkuNTUsNTEwLjMxLDI0MS44NCw1MDkuMTIsMjQ0LjU5IE01NzguOTksMzY1LjYxJiN4YTsgYy0zLjI3LTEuOC0xOC41NS0xLjA5LTI5LjI5LDAuMTljLTIwLjQ2LDIuNDEtNDIuNTUsOS41MS00Ny4zOSwxMy4yOWMtOC44LDYuOC00LjgsMTguNjYsMS43LDIzLjUzJiN4YTsgYzE4LjIzLDEzLjYyLDM0LjIxLDIyLjc1LDUxLjA4LDIwLjUzYzEwLjM2LTEuMzYsMTkuNDktMTcuNzYsMjUuOTYtMzIuNjRDNTg1LjQ4LDM4MC4yNiw1ODUuNDgsMzY5LjIsNTc4Ljk5LDM2NS42MSBNMzk3Ljg1LDI2MC42NSYjeGE7IGM1Ljc3LTUuNDgtMjguNzQtMTIuNjgtNTUuNTIsNS41OGMtMTkuNzUsMTMuNDctMjAuMzgsNDIuMzUtMS40Nyw1OC43MmMxLjg5LDEuNjIsMy40NSwyLjc3LDQuOTEsMy43MSYjeGE7IGM1LjUyLTIuNiwxMS44MS01LjIzLDE5LjA1LTcuNThjMTIuMjMtMy45NywyMi40LTYuMDIsMzAuNzYtNy4xMWM0LTQuNDcsOC42NS0xMi4zNCw3LjQ5LTI2LjU5JiN4YTsgQzQwMS40OSwyNjguMDUsMzg2Ljg0LDI3MS4xMiwzOTcuODUsMjYwLjY1Ii8+JiN4YTs8L3N2Zz4=;" parent="1" vertex="1">
          <mxGeometry x="385" y="440" width="56.08" height="60" as="geometry" />
        </mxCell>
        <mxCell id="En1KIVsCp9-wME2r348S-10" value="" style="endArrow=none;dashed=1;html=1;dashPattern=1 3;strokeWidth=2;rounded=0;fillColor=#f5f5f5;strokeColor=#666666;targetPerimeterSpacing=10;exitX=0.5;exitY=0;exitDx=0;exitDy=0;" parent="1" edge="1" source="En1KIVsCp9-wME2r348S-4">
          <mxGeometry width="50" height="50" relative="1" as="geometry">
            <mxPoint x="410" y="450" as="sourcePoint" />
            <mxPoint x="412" y="380" as="targetPoint" />
          </mxGeometry>
        </mxCell>
        <mxCell id="Wr71hT03meQ3xUvl-k-h-1" value="" style="shape=image;imageAspect=0;aspect=fixed;verticalLabelPosition=bottom;verticalAlign=top;image=https://github.com/typelevel/cats-effect/raw/series/3.x/images/cats-effect-logo.png;" vertex="1" parent="1">
          <mxGeometry x="490" y="200" width="80" height="80" as="geometry" />
        </mxCell>
        <mxCell id="Wr71hT03meQ3xUvl-k-h-2" value="" style="shape=image;imageAspect=0;aspect=fixed;verticalLabelPosition=bottom;verticalAlign=top;image=https://camo.githubusercontent.com/a51c0d3b1eb3f78da8322803d7dcda5dbe05316677ab36c75e9fa6e40dd339d0/68747470733a2f2f63646e2e7261776769742e636f6d2f74706f6c656361742f646f6f6269652f7365726965732f302e352e782f646f6f6269655f6c6f676f2e737667;" vertex="1" parent="1">
          <mxGeometry x="280" y="200" width="70.61" height="80" as="geometry" />
        </mxCell>
        <mxCell id="Wr71hT03meQ3xUvl-k-h-4" value="&lt;h1&gt;Trace4Cats&lt;/h1&gt;" style="text;html=1;align=center;verticalAlign=middle;resizable=0;points=[];autosize=1;strokeColor=none;fillColor=none;" vertex="1" parent="1">
          <mxGeometry x="339" y="310" width="150" height="70" as="geometry" />
        </mxCell>
        <mxCell id="Wr71hT03meQ3xUvl-k-h-5" value="" style="shape=image;imageAspect=0;aspect=fixed;verticalLabelPosition=bottom;verticalAlign=top;image=https://http4s.org/images/http4s-logo-text-light.svg;" vertex="1" parent="1">
          <mxGeometry x="353.04" y="170" width="135.96" height="40" as="geometry" />
        </mxCell>
      </root>
    </mxGraphModel>
  </diagram>
</mxfile>
